<svg preserveAspectRatio="none" width="100%" height="100%" overflow="visible" style="display: block;" viewBox="0 0 14 14" fill="none" xmlns="http://www.w3.org/2000/svg">
<g id="MoreHorizontal">
<path id="Vector" d="M7 7.58333C7.32217 7.58333 7.58333 7.32217 7.58333 7C7.58333 6.67783 7.32217 6.41667 7 6.41667C6.67783 6.41667 6.41667 6.67783 6.41667 7C6.41667 7.32217 6.67783 7.58333 7 7.58333Z" stroke="var(--stroke-0, #858585)" stroke-width="1.16667" stroke-linecap="round" stroke-linejoin="round"/>
<path id="Vector_2" d="M11.0833 7.58333C11.4055 7.58333 11.6667 7.32217 11.6667 7C11.6667 6.67783 11.4055 6.41667 11.0833 6.41667C10.7612 6.41667 10.5 6.67783 10.5 7C10.5 7.32217 10.7612 7.58333 11.0833 7.58333Z" stroke="var(--stroke-0, #858585)" stroke-width="1.16667" stroke-linecap="round" stroke-linejoin="round"/>
<path id="Vector_3" d="M2.91667 7.58333C3.23883 7.58333 3.5 7.32217 3.5 7C3.5 6.67783 3.23883 6.41667 2.91667 6.41667C2.5945 6.41667 2.33333 6.67783 2.33333 7C2.33333 7.32217 2.5945 7.58333 2.91667 7.58333Z" stroke="var(--stroke-0, #858585)" stroke-width="1.16667" stroke-linecap="round" stroke-linejoin="round"/>
</g>
</svg>
